<svg width="26" height="27" viewBox="0 0 26 27" fill="none" xmlns="http://www.w3.org/2000/svg">
<path style="mix-blend-mode:screen" d="M3.34636 5.14504C4.95101 3.17634 7.09994 1.73082 9.52124 0.991361C11.9425 0.251902 14.5274 0.251737 16.9488 0.990889C19.3702 1.73004 21.5193 3.1753 23.1242 5.14379C24.7291 7.11229 25.7177 9.51556 25.9649 12.0496C26.212 14.5835 25.7067 17.1344 24.5128 19.3793C23.3189 21.6242 21.4901 23.4624 19.2577 24.6612C17.0254 25.86 14.4898 26.3656 11.9719 26.1139C9.45389 25.8623 7.06666 24.8648 5.11221 23.2477C3.81263 22.1774 2.73578 20.8595 1.94339 19.3696C1.15101 17.8797 0.658679 16.247 0.494628 14.5652C0.330576 12.8835 0.498032 11.1856 0.987393 9.56912C1.47675 7.95261 2.2784 6.44918 3.34636 5.14504V5.14504Z" fill="url(#paint0_radial_31_678)"/>
<defs>
<radialGradient id="paint0_radial_31_678" cx="0" cy="0" r="1" gradientUnits="userSpaceOnUse" gradientTransform="translate(13.4877 13.7071) rotate(-152.966) scale(12.8652 12.9125)">
<stop offset="0.13" stop-color="white"/>
<stop offset="0.37" stop-color="#A8A8A8"/>
<stop offset="0.63" stop-color="#4E4E4E"/>
<stop offset="0.82" stop-color="#161616"/>
<stop offset="0.91"/>
</radialGradient>
</defs>
</svg>
